<svg width="131" height="41" viewBox="0 0 131 41" fill="none" xmlns="http://www.w3.org/2000/svg">
<path d="M17.2583 28.696H0V34.2016H17.2583C20.6263 34.2016 23.3339 31.4377 23.3339 28.0496C23.3339 24.6616 20.6043 21.8977 17.2583 21.8977H12.7896C8.73921 21.8977 5.43724 18.5542 5.43724 14.4529C5.43724 10.3516 8.73921 7.00813 12.7896 7.00813H30.0479V1.50256H12.7896C5.72341 1.50256 0 7.29789 0 14.4529C0 21.6079 5.72341 27.4032 12.7896 27.4032H17.2583C17.6105 27.4032 17.8967 27.693 17.8967 28.0496C17.8967 28.4063 17.6105 28.696 17.2583 28.696Z" fill="#AAB2C8"/>
<path d="M12.7896 13.8065H30.0479V8.30096H12.7896C9.44363 8.30096 6.714 11.0649 6.714 14.4529C6.714 17.841 9.44363 20.6049 12.7896 20.6049H17.2583C21.3087 20.6049 24.6107 23.9484 24.6107 28.0497C24.6107 32.1733 21.3087 35.4944 17.2583 35.4944H0V41H17.2583C24.3245 41 30.0479 35.2047 30.0479 28.0497C30.0479 20.8947 24.3245 15.0993 17.2583 15.0993H12.7896C12.4374 15.0993 12.1512 14.8096 12.1512 14.4529C12.1512 14.0963 12.4374 13.8065 12.7896 13.8065Z" fill="#AAB2C8"/>
<path d="M75.0207 8.30096C72.7313 8.30096 70.8602 10.1733 70.8602 12.5137V30.0112C70.8602 32.3293 72.7313 34.2239 75.0207 34.2239H86.2034V21.92H77.5742V27.4033H80.7661V28.6961H77.5742C76.8698 28.6961 76.2975 28.1165 76.2975 27.4033V15.0993C76.2975 14.3861 76.8698 13.8065 77.5742 13.8065H92.9174V8.30096H75.0207Z" fill="#AAB2C8"/>
<path d="M109.053 34.2016H121.688L113.125 8.36783C112.905 7.65456 112.245 7.16418 111.474 7.16418C110.726 7.16418 110.088 7.65456 109.845 8.34554L98.7288 41H105.135L109.053 29.387V34.2016ZM111.386 22.4772L113.235 28.0497H109.515L111.386 22.4772Z" fill="#AAB2C8"/>
<path d="M119.839 7.27564C118.783 3.57555 115.415 0.856201 111.408 0.856201C107.446 0.856201 104.122 3.50868 103.021 7.14191L92.9173 37.1439V15.0993H77.5742V20.6049H87.4801V35.4944H74.9987C72.0049 35.4944 69.5614 33.0203 69.5614 29.9889V12.4914C69.5614 9.46004 72.0049 7.00817 74.9987 7.00817H92.8953V1.50261H74.9767C68.9671 1.50261 64.1022 6.42863 64.1022 12.5137V29.9889C64.1022 36.074 68.9671 41 74.9767 41H97.342L108.591 7.94433C108.987 6.74069 110.11 5.8491 111.452 5.8491C112.795 5.8491 113.918 6.74069 114.314 7.96663L123.428 35.4721H109.031V41H131L119.839 7.27564Z" fill="#AAB2C8"/>
<path d="M43.4758 35.4944C40.482 35.4944 38.0386 33.0202 38.0386 29.9888V12.4914C38.0386 9.46 40.482 7.00813 43.4758 7.00813H62.0328V1.50256H43.4758C37.4662 1.50256 32.6013 6.42859 32.6013 12.5137V29.9888C32.6013 36.0739 37.4662 41 43.4758 41H62.0328V35.4944H43.4758Z" fill="#AAB2C8"/>
<path d="M44.7746 27.4032H58.2026V21.8976H39.3374V29.9888C39.3374 32.307 41.2085 34.2016 43.4979 34.2016H62.0549V28.696H46.0734C45.347 28.696 44.7746 28.1165 44.7746 27.4032Z" fill="#AAB2C8"/>
<path d="M58.2027 15.0993H44.7747C44.7747 14.3861 45.347 13.8065 46.0514 13.8065H62.033V8.30096H43.4759C41.1865 8.30096 39.3154 10.1733 39.3154 12.4914V20.6049H58.1807V15.0993H58.2027Z" fill="#AAB2C8"/>
</svg>
