<svg width="166" height="41" viewBox="0 0 166 41" fill="none" xmlns="http://www.w3.org/2000/svg">
<path d="M26.3025 0.159632C26.3025 0.159632 28.9707 -0.09367 31.0619 1.28198C31.819 1.24569 32.4318 1.57209 32.8284 2.29596C33.2253 3.02008 33.946 4.75716 33.3694 5.80692C33.1894 6.02444 32.7922 5.15539 32.7922 5.15539C32.7922 5.15539 32.5038 6.20541 31.9628 6.60364C32.0351 8.77575 31.17 10.2958 30.9175 10.8027C30.8093 11.0928 30.8811 11.3458 30.9893 11.6357C31.0975 11.9253 32.5399 17.0292 32.4682 18.7307C32.3961 20.4323 31.5308 22.46 30.8455 23.1468C30.9893 24.5585 30.3406 25.7537 30.0158 26.3331C29.6917 26.9121 28.9707 29.0842 28.7902 30.0976C28.61 31.1116 28.5379 32.1977 28.7541 32.5233C28.9707 32.8487 29.9442 33.8629 29.8719 34.3695C29.7996 34.8761 28.7541 35.4556 28.2495 35.4556C27.7447 35.4556 26.6988 35.1302 26.4466 34.4416C26.1943 33.754 26.1579 32.5599 26.3384 31.8718C26.5186 31.1837 27.7447 26.1524 27.0234 23.1836C25.2567 23.9798 22.3 23.944 22.3 23.944C22.3 23.944 21.7954 26.5864 21.1823 28.1067C20.9657 28.4687 21.0021 30.9304 21.0021 32.487C21.0021 34.0441 21.5431 36.4691 21.5431 36.4691C21.5431 36.4691 22.3002 37.0122 22.192 37.6998C22.0838 38.3874 21.2185 38.7858 20.4614 38.7858C19.704 38.7858 18.6948 38.2064 18.6948 37.2653C18.6948 36.3244 18.8384 34.1888 18.7666 32.6319C18.6948 31.0751 18.7312 30.0616 18.4784 29.0842C18.2259 28.1067 17.5049 25.5364 17.4329 23.5455C17.1806 23.5455 16.9283 23.3643 16.9283 23.3643C16.9283 23.3643 15.7386 24.7402 14.9092 25.5364C15.0174 26.0793 15.3059 27.0567 15.3059 27.274C15.3059 27.4913 15.5228 27.6725 15.883 27.8171C16.2435 27.9621 17.3606 28.5773 17.3247 29.1928C17.2888 29.8083 15.8822 29.9169 14.6564 29.374C14.3682 29.2294 13.3232 25.7179 13.1783 25.2471C13.0337 24.7757 12.9255 24.5229 13.106 24.1242C13.2863 23.7262 13.7914 22.4232 13.7191 21.6627C13.6468 20.9026 12.241 19.7081 11.3031 19.7081C10.5821 19.7081 9.47978 20.8139 8.67124 21.4457C7.69772 22.2062 6.58011 23.364 6.29167 23.5453C6.00298 23.7265 3.73136 27.8532 3.29882 29.0476C3.11883 29.5182 2.75835 31.8715 0.847467 31.7989C-0.0178524 31.7263 -0.81138 30.7855 1.64023 29.0839C2.26268 27.6446 3.12825 26.1509 3.18223 25.8523C3.2362 25.5535 3.88538 21.834 4.96709 18.3049C6.0488 14.775 7.64426 13.0916 7.94161 12.8473C8.18499 12.6576 8.32017 12.5487 8.07679 12.4132C7.83341 12.2775 5.26444 10.078 5.7512 5.40844C5.83241 4.86554 6.07553 5.00126 6.23796 6.25014C6.40012 7.49902 7.40037 10.431 9.61777 11.3545C9.83441 11.4358 11.4296 10.2143 19.5693 9.61694C19.6233 8.1779 19.8397 6.65757 19.8397 6.65757C19.8397 6.65757 19.2717 6.2233 19.1908 5.35425C18.9204 5.78878 18.758 5.89741 18.4064 5.84296C18.0548 5.78852 18.0818 4.10512 18.163 2.91043C18.2442 1.71574 19.6233 1.20019 20.137 1.146C20.8129 0.792761 21.5431 0.84746 21.5431 0.84746C21.5431 0.84746 22.787 -0.419308 26.3025 0.159632Z" fill="#AAB2C8"/>
<path d="M41.6616 7.57953H64.4127L52.6226 26.8747H64.6653V32.1964H41.6616L53.9204 12.9372H41.6616V7.57953Z" fill="#AAB2C8"/>
<path d="M65.4586 7.57956H72.3452L77.9335 22.2404L83.8466 7.54352H90.2287L77.1764 40.377H70.3259L74.5081 31.0373L65.4586 7.57956Z" fill="#AAB2C8"/>
<path d="M91.2951 7.61584H97.6917V9.71536C97.6917 9.71536 100.18 7.07294 104.579 7.07294C108.977 7.07294 111.861 10.693 111.861 14.6751V32.2685H105.443V15.3989C105.443 11.6342 101.153 11.9964 97.6553 17.0279V32.2685H91.2735L91.2951 7.61584V7.61584Z" fill="#AAB2C8"/>
<path d="M137.245 25.2095V7.57978H130.827V8.62928C130.827 8.62928 128.297 7.2682 125.923 7.10921C122.137 6.85565 114.818 9.78768 114.782 19.598C114.743 30.2768 122.281 31.7251 124.553 31.7251C125.959 31.7251 128.411 31.5444 130.827 29.5167C130.827 34.5487 128.05 35.4541 125.599 35.4541H118.893L118.856 40.9927C118.856 40.9927 122.462 40.9562 126.319 40.8112C137.677 40.1237 137.245 31.0017 137.245 25.2095V25.2095ZM130.827 22.8922C130.827 22.8922 128.844 25.7887 125.31 25.7887C121.777 25.7887 121.416 22.349 121.416 19.7789C121.416 17.2089 122.173 12.4667 126.175 12.4667C129.023 12.4667 130.827 14.5664 130.827 14.5664V22.8922H130.827Z" fill="#AAB2C8"/>
<path d="M161.726 27.309C158.95 28.0329 158.986 26.8021 158.986 25.0643V14.6027C158.986 9.28158 155.092 7.03662 150.585 7.03662C146.078 7.03662 141.787 9.17218 141.787 9.17218V15.1817C141.787 15.1817 145.753 12.4666 149.647 12.4666C153.541 12.4666 152.64 15.4713 152.64 16.7017C144.275 16.8464 139.804 20.0322 139.804 25.4983C139.804 30.9651 144.996 32.7748 147.267 32.7748C149.539 32.7748 151.991 31.6888 153.865 30.2771C154.586 31.5443 156.029 32.7748 158.048 32.7748C160.068 32.7748 162.302 31.5799 162.302 31.5799C162.302 31.5799 161.907 28.576 161.726 27.309V27.309ZM152.604 25.463C152.604 25.463 150.801 27.092 148.638 27.092C146.475 27.092 146.186 25.463 146.186 24.9199C146.186 24.377 146.475 21.2277 152.604 21.4447V25.463V25.463Z" fill="#AAB2C8"/>
</svg>
