<svg width="122" height="39" viewBox="0 0 122 39" fill="none" xmlns="http://www.w3.org/2000/svg">
<path d="M19.7418 35.3229L17.9673 30.7543L35.0473 31.6457L34.2709 39L19.7418 35.3229ZM23.8455 0L0 11.3657L3.66 28.4143H8.54L7.76364 16.1571L8.42909 15.9343L11.4236 28.4143H16.4145L16.3036 13.4829L16.9691 13.26L19.52 28.4143H24.9545L26.1745 10.4743L26.9509 10.14L28.2818 28.4143H35.2691L37.82 3.45429L23.8455 0ZM118.007 34.7657L111.242 33.6514V32.76L117.785 32.5371L117.675 30.8657H109.356L108.913 35.1L115.789 36.3257V37.1057L108.58 37.44L108.358 39H118.451L118.007 34.7657ZM53.2364 34.0971L53.1255 35.6571L55.5655 35.7686V37.3286L50.3527 37.2171L50.5745 32.6486L57.6727 32.5371L57.5618 30.8657H48.3564L47.58 39H58.0055L57.7836 33.9857L53.2364 34.0971V34.0971ZM97.4891 37.1057V35.6571L102.369 35.5457V33.9857L97.3782 33.8743V32.4257L103.922 32.3143V30.6429H95.0491L94.8273 39H104.144L104.033 37.3286L97.4891 37.1057V37.1057ZM90.3909 39L89.5036 30.7543H87.1745L83.7364 34.6543L80.2982 30.7543H77.9691L77.1927 39H79.9655L80.1873 33.6514L83.7364 37.3286L87.2855 33.6514L87.5073 39H90.3909ZM78.6345 0.557143H73.0891L72.6455 26.0743H79.3L78.6345 0.557143ZM101.26 0.557143H83.9582L83.2927 26.0743H102.48L101.26 0.557143V0.557143ZM95.9364 20.5029L89.8364 20.7257L89.5036 5.68286L95.9364 5.90571V20.5029ZM122 6.12857L121.335 0.557143H104.255L104.476 5.46L109.911 5.68286L110.465 26.0743H117.231L115.235 5.90571L122 6.12857ZM62.22 26.0743H69.54L64.7709 14.5971L68.5418 12.48L65.9909 0.557143H47.3582L46.6927 6.12857L50.9073 6.01714L48.9109 26.1857H55.4545L55.6764 19.7229L60.3345 17.16L62.22 26.0743V26.0743ZM56.0091 5.68286L61.3327 5.57143L61.9982 10.6971L55.7873 13.5943L56.0091 5.68286ZM70.4273 39H73.2L70.9818 30.7543H64.3273L62.1091 39H64.8818L65.3255 36.8829L69.8727 36.9943L70.4273 39ZM65.7691 35.3229L66.3236 32.6486L68.9855 32.5371L69.54 35.2114L65.7691 35.3229Z" fill="#AAB2C8"/>
</svg>
