<svg width="160" height="40" viewBox="0 0 160 40" fill="none" xmlns="http://www.w3.org/2000/svg">
<path d="M152.827 31.805H153.231C153.231 32.6344 153.563 33.3772 154.104 33.9181C154.645 34.459 155.388 34.7908 156.217 34.7908C157.039 34.7908 157.789 34.459 158.33 33.9181C158.871 33.3772 159.203 32.6344 159.203 31.805H159.599C159.599 33.6801 158.085 35.1946 156.217 35.1946V34.9927V35.1946C154.349 35.1946 152.835 33.6801 152.827 31.805ZM159.203 31.805C159.203 30.9829 158.871 30.2328 158.33 29.6991C157.789 29.1582 157.039 28.8193 156.217 28.8193V28.4226C158.085 28.4226 159.599 29.9371 159.599 31.805H159.203ZM156.217 28.6245V28.4226V28.6245ZM152.827 31.805C152.835 29.9371 154.349 28.4226 156.217 28.4226V28.8193C155.388 28.8193 154.645 29.1582 154.104 29.6991C153.563 30.2328 153.231 30.9829 153.231 31.805H152.827Z" fill="#AAB2C8"/>
<path d="M52.2496 11.15H58.1923V33.8171H52.2496V11.15Z" fill="#AAB2C8"/>
<path d="M139.197 24.1531V33.7305L133.218 33.7089V10.4504L143.986 19.7177V11.1499H149.914V34.6537L139.197 24.1531Z" fill="#AAB2C8"/>
<path d="M22.3633 22.4223C22.3633 15.9892 27.5847 10.7678 34.0178 10.7678C36.917 10.7678 39.571 11.8351 41.612 13.5876L37.7608 17.9581C36.7511 17.1071 35.4457 16.595 34.0178 16.595C30.8013 16.595 28.1905 19.2057 28.1905 22.4223C28.1905 25.6388 30.8013 28.2495 34.0178 28.2495C35.4674 28.2495 36.7944 27.7158 37.8185 26.836L41.6624 31.2136C39.6215 32.995 36.9458 34.0695 34.0178 34.0695C27.5847 34.0695 22.3633 28.8553 22.3633 22.4223Z" fill="#AAB2C8"/>
<path d="M69.5078 39.0025L58.2643 9.13064H48.8672V33.9037H42.7154V9.13064H29.0992L32.2581 3.18079H62.6564L69.5078 21.0808L76.3663 3.18079H105.798L109.044 9.13064H80.7584L69.5078 39.0025Z" fill="#AAB2C8"/>
<path d="M88.504 33.7306V28.7255H92.586C93.2495 28.7255 94.5116 28.675 94.8289 27.622C95.4852 25.4296 88.7637 21.8741 88.7637 16.4219C88.7637 12.2967 91.7494 11.0634 93.776 11.0634H99.9638V15.982H96.1415C96.1415 15.982 95.0453 15.982 94.7424 16.4219C93.0836 18.7946 100.887 22.2636 100.887 28.6389C100.887 31.9708 98.031 33.7306 95.1823 33.7306H88.504Z" fill="#AAB2C8"/>
<path d="M80.845 11.0634H86.7948V33.7306H80.845V11.0634Z" fill="#AAB2C8"/>
<path d="M101.853 11.0634H107.803V33.7306H101.853V11.0634Z" fill="#AAB2C8"/>
<path d="M157.097 33.5359C156.996 33.2979 157.01 32.9373 156.967 32.6344C156.909 32.2377 156.758 32.0646 156.34 32.0646H155.51V33.5359H154.688V29.7712H156.715C157.392 29.7712 157.818 30.24 157.818 30.8098C157.818 31.2569 157.638 31.5887 157.219 31.7545V31.769C157.63 31.8699 157.746 32.2666 157.767 32.6488C157.789 32.8868 157.782 33.3267 157.926 33.5359H157.097ZM155.51 31.4805H156.419C156.787 31.4805 156.989 31.3218 156.989 30.9396C156.989 30.579 156.787 30.4203 156.419 30.4203H155.51V31.4805Z" fill="#AAB2C8"/>
<path d="M17.8487 33.8171L16.2693 29.5981H8.89147L7.31206 33.8171H0.987183L12.584 0.613342L24.1808 33.8171H17.8487ZM10.6945 23.5401H14.2067L12.447 17.7417L10.6945 23.5401Z" fill="#AAB2C8"/>
<path d="M108.885 22.415C108.885 15.9748 114.114 10.7461 120.561 10.7461C127.001 10.7461 132.23 15.9748 132.23 22.415C132.23 28.8625 127.001 34.0912 120.561 34.0912C114.114 34.0912 108.885 28.8625 108.885 22.415ZM114.763 22.415C114.763 25.6171 117.359 28.2134 120.561 28.2134C123.756 28.2134 126.352 25.6171 126.352 22.415C126.352 19.2201 123.756 16.6238 120.561 16.6238C117.359 16.6238 114.763 19.2201 114.763 22.415Z" fill="#AAB2C8"/>
</svg>
