<svg width="78" height="41" viewBox="0 0 78 41" fill="none" xmlns="http://www.w3.org/2000/svg">
<g clip-path="url(#clip0)">
<path d="M4.9722 40.8319L2.78235 40.8285V37.8327L4.94139 37.8369V38.3858L3.52428 38.3824V39.012H4.87649V39.5635L3.52428 39.5602V40.2813L4.9722 40.2829V40.8319V40.8319ZM11.2087 40.8369H10.5875L8.94544 38.9145V40.8335H8.20701V37.8368L8.8839 37.8385L10.4701 39.6734V37.8418L11.2087 37.8435V40.8369ZM17.2194 38.3959L16.1454 38.3942V40.8385H15.4068V38.3925L14.3327 38.3908V37.8436L17.2194 37.8453V38.3959ZM22.5308 40.8478L20.3419 40.8435V37.847L22.4983 37.852V38.3992L21.0811 38.3975V39.0262H22.4341V39.5768L21.0811 39.5751V40.2946L22.5308 40.2963V40.8478V40.8478ZM27.0853 37.8536C27.6964 37.8536 28.0579 38.2689 28.0579 38.7161C28.0579 39.0464 27.8888 39.291 27.5498 39.4498C27.8547 39.6028 27.9453 39.9728 28.3625 40.8527L27.5498 40.8493C27.231 40.2089 27.1144 39.6324 26.7123 39.6324L26.5008 39.6307V40.8494L25.7606 40.8478V37.8521L27.0853 37.8536ZM26.5008 39.0809L26.8913 39.0843C27.0962 39.0843 27.2968 38.997 27.2968 38.7421C27.2968 38.5185 27.152 38.4026 26.8747 38.4026H26.5008V39.0809ZM33.8387 38.4059L32.7655 38.4043V40.8493H32.0262V38.4026L30.9513 38.401V37.8536L33.8388 37.8587V38.4059H33.8387ZM39.5664 40.8578L38.768 40.8545L38.5265 40.2636L37.1993 40.2602L36.9761 40.8545L36.1919 40.8528L37.3883 37.8588L38.2467 37.8604L39.5664 40.8578ZM37.8288 38.5749L37.3941 39.7373L38.3076 39.739L37.8288 38.5749ZM43.3416 40.8596L42.5997 40.8579V37.8622H43.3416V40.8596ZM49.6938 40.8663L49.0711 40.8646L47.4308 38.9397V40.863L46.6922 40.8613V37.8638L47.3691 37.868L48.9536 39.6997V37.8697H49.6938V40.8663V40.8663ZM55.573 37.8747H56.22V40.8714L55.4798 40.8697V38.9986L54.6763 39.9366H54.564L53.7638 38.9969V40.8663H53.0244V37.8696L53.6688 37.8712L54.6222 38.985L55.573 37.8747ZM61.7379 40.8746L59.548 40.8714V37.8747L61.7071 37.8797V38.4286L60.2883 38.427V39.0516L61.6405 39.0557V39.6047L60.2883 39.603V40.3225L61.7379 40.3259V40.8746H61.7379ZM67.9735 40.8823L67.3514 40.8807L65.7112 38.9575V40.8789L64.971 40.8746V37.8798L65.6496 37.8814L67.234 39.7164V37.8832L67.9734 37.8848V40.8823H67.9735ZM73.985 38.4386L72.91 38.4371V40.8838H72.1707V38.4353L71.0941 38.4337V37.8848L73.985 37.8897V38.4386V38.4386Z" fill="#AAB2C8"/>
<path d="M47.6651 28.3186C47.6602 28.812 47.9158 28.9137 47.9449 29.2255V31.8505L47.8975 31.88C47.7509 31.9851 47.686 32.038 47.6685 32.0556C47.6701 32.0674 47.6752 32.0985 47.6752 32.1414C47.6752 32.1759 47.6702 32.2137 47.6651 32.264L47.6503 32.3566H43.4821L43.4504 32.3021C43.3937 32.2036 43.343 32.1364 43.2798 32.0489L41.9034 31.9002C41.6377 32.1985 41.2057 32.4777 40.8492 32.6011L40.8325 32.6062H40.815C39.7668 32.6062 39.1814 32.6567 38.5778 32.6567C38.2988 32.7097 37.5444 33.1711 36.9649 33.1779H36.919L36.8882 33.1434C36.665 32.9004 36.6069 32.6389 36.6085 32.4204C36.6085 32.2137 36.6509 32.0379 36.6509 31.9471V30.8317L36.6967 30.8006C36.8166 30.7167 36.8799 30.6889 36.9516 30.5956C37.0057 30.5267 37.0314 30.403 37.0314 30.272C37.0314 30.0055 36.934 29.7147 36.934 29.7147L36.9082 29.6365L36.9732 29.5903C37.2272 29.4079 37.3762 29.3406 37.4936 29.1028C37.5361 29.0103 37.5569 28.8776 37.5569 28.7431C37.5569 28.4699 37.487 28.1959 37.487 28.1959L37.4661 28.1202L37.5278 28.079C37.6485 27.9966 37.7101 27.9656 37.7801 27.8757C37.8291 27.8117 37.8533 27.7026 37.8533 27.5797C37.8533 27.3334 37.7641 27.0686 37.7641 27.0686L37.7591 27.0493V27.0324C37.7767 26.877 37.9641 26.5954 38.0406 26.3231C38.1088 26.0834 38.1364 25.7808 38.1364 25.485C38.1364 24.8907 38.0356 24.3334 38.0356 24.3107C38.0406 24.04 37.8824 23.982 37.7642 23.6684C37.5569 23.0743 37.4919 22.3513 37.4919 21.6511C37.4919 20.2482 37.7592 18.9294 37.7642 18.9084L39.422 14.4635C39.4103 14.4021 39.2546 14.3584 39.1514 14.1458C39.1305 14.0903 39.1189 14.0364 39.1189 13.9903C39.1222 13.8886 39.1439 13.8323 39.1439 13.7306V13.6861L39.1763 13.6549C39.173 13.6516 39.5652 13.254 39.5602 12.8253C39.5602 12.6731 39.5568 12.5874 39.5568 12.5017C39.5568 12.458 39.5568 12.4151 39.5602 12.3572C39.6234 12.0293 40.3055 11.1897 40.3903 10.3944C40.4028 10.2928 40.4062 10.1666 40.4062 10.0465C40.4062 9.80528 40.3903 9.58165 40.3903 9.57496C40.4112 9.30597 41.5294 6.70864 42.3295 5.90177V4.90811L42.3753 4.87693C42.4319 4.84417 42.6209 4.68622 42.606 4.60125V4.59456C42.6044 4.51393 42.5976 4.56346 42.4561 4.39369H40.989L40.9598 4.33817C40.8865 4.21203 40.8565 4.14903 40.7692 4.05911C40.6618 3.95076 40.5118 3.90958 40.3328 3.90958C39.9698 3.90792 39.5751 4.08187 39.3894 4.09029C39.337 4.07171 39.1272 4.25242 38.9515 4.66685C38.7675 5.07702 38.5868 5.6916 38.4552 6.49344C38.1947 8.16861 37.9199 8.39555 37.5652 8.40232C37.507 8.40232 37.4595 8.39563 37.4153 8.39901C37.2954 8.40405 37.2121 8.40405 37.0573 8.64698L36.9891 8.75879L36.8932 8.67304C36.7709 8.5613 36.6118 8.41169 36.561 8.38059L36.491 8.33185L36.5193 8.25106C36.625 7.97624 36.6558 7.7812 36.6558 7.63159C36.6608 7.33748 36.5193 7.18023 36.5126 6.85322C36.5251 6.59187 36.765 6.36068 36.929 6.20264V1.00869L37.0281 1.002C37.1181 0.995308 37.3346 0.995308 37.874 0.995308C38.9499 0.995308 41.3012 1.002 46.3794 1.002H46.4411L46.4735 1.05492C46.6417 1.33571 46.6508 1.31729 46.6609 1.31225C46.6791 1.31225 46.7358 1.30296 46.8157 1.30296C46.8332 1.30296 46.8564 1.30296 46.8791 1.30548L46.9731 1.31886V1.67691L46.9473 1.70809C46.7017 1.98794 46.6076 2.97474 45.8016 3.7943C45.8149 3.88934 45.8375 4.09691 45.8375 4.31967C45.8375 4.4692 45.8283 4.62558 45.7924 4.76512C45.6551 5.30222 45.5119 5.3938 44.9707 5.90996C44.9865 6.00579 45.014 6.21256 45.014 6.43446C45.014 6.58832 45.0015 6.74463 44.9607 6.88424C44.7683 7.36583 44.4286 7.14897 44.4102 7.70206C44.4102 7.70206 44.2562 8.76619 44.1163 9.44196C43.9748 10.1119 43.6325 10.5011 43.6375 11.0138C43.6375 11.0895 43.6458 11.1668 43.6608 11.2735L43.5776 14.0146L43.5351 14.0457C43.1313 14.2887 43.2046 15.8597 42.4743 16.6481V17.6038L42.4676 17.6206C42.2445 18.2148 41.8182 18.1804 41.6442 18.9461V22.0638L40.8132 24.4762C40.8208 24.5669 40.8457 24.9099 40.8457 25.2815C40.8457 25.4967 40.8374 25.7203 40.81 25.9153C40.6976 26.6811 40.1963 27.6141 39.944 28.0478C39.8806 28.1495 39.8499 28.205 39.8207 28.2495C39.824 28.2715 39.8265 28.2958 39.8265 28.3186C39.8207 28.6261 39.6042 29.1465 39.5634 29.2498C39.5452 29.449 39.3943 29.7265 39.3128 29.8828C39.4185 29.9878 39.4493 30.0274 39.5276 30.024C39.5418 30.0324 39.6167 29.9534 39.7116 29.7761L39.7616 29.6888L39.8499 29.7332C40.0222 29.8155 40.1737 29.8416 40.3294 29.8416C40.6374 29.845 40.9639 29.7248 41.3743 29.7248C41.4851 29.7038 41.5009 29.6281 41.5333 29.4114C41.56 29.2121 41.5891 28.9331 41.804 28.7002C42.2203 28.2564 43.1429 28.1615 43.3428 28.0017C44.466 27.215 44.9314 27.5815 45.6666 26.3727L45.7349 26.2592L45.8307 26.3492C45.9257 26.4383 46.0005 26.519 46.0847 26.624H47.4776L47.5101 26.6762C47.6517 26.9225 47.9364 27.0965 47.9447 27.489C47.8883 27.7781 47.6735 27.6814 47.6651 28.3186ZM54.7058 22.6666C54.7042 24.2006 54.6759 25.7002 54.5852 26.0751L54.5768 26.1146L54.5426 26.139C54.3961 26.2247 54.1897 26.8636 53.9881 27.5352C53.78 28.1908 53.5552 28.8935 53.2005 29.2701V30.8662L53.158 30.8991C52.8391 31.0966 52.7875 32.3222 52.3719 32.818V33.8149L52.3253 33.8494C52.2321 33.9134 52.1739 33.9613 52.0955 34.0335V35.3264L52.0514 35.3609C51.8158 35.5171 51.8417 35.6677 51.5719 35.6811C51.5003 35.6861 51.4529 35.6314 51.4304 35.6004C51.4046 35.6088 51.3538 35.6256 51.2788 35.6694L51.1214 35.7568L51.1256 34.0184L50.2896 31.2656V30.436C50.3404 29.8123 48.9275 29.3289 48.9067 28.0168V27.974L48.9342 27.9429C48.9326 27.9345 50.6261 26.113 50.7043 23.6324V23.6275C50.7501 23.4618 49.9916 22.913 49.1848 22.4826C48.4172 22.0438 47.6311 21.6563 47.3755 21.3983H46.876L47.1133 22.1036V23.619C47.4829 23.7183 47.7169 24.1764 47.9501 24.2024C48.0083 24.204 48.0983 24.2764 48.0934 24.3605C48.0527 24.6084 47.7187 24.8218 47.662 25.1648L47.6488 25.2573L47.5529 25.2506C47.5513 25.2506 46.702 25.1959 46.0117 25.1959C45.6654 25.1959 45.3514 25.2111 45.2373 25.2472C43.921 25.6912 42.4222 26.2593 42.4206 26.2593L42.3381 26.2921L42.2907 26.2164C41.9326 25.6071 42.2357 25.776 41.9019 25.2935L41.8594 25.2296L41.9035 25.1699C42.4097 24.4815 42.5296 24.3605 42.8861 24.0367C42.8927 23.8661 42.9268 23.2693 43.14 22.9012C43.4247 22.4707 44.0516 22.3464 43.9927 22.1968C44.0042 22.1656 43.9244 22.0902 43.7603 21.9832L43.7063 21.9455L43.7145 21.8816C43.7145 21.8816 43.8152 20.9931 43.9069 20.5064C43.9393 20.3752 43.946 20.2946 43.9801 20.2189C43.941 20.1005 43.8494 19.7743 43.846 19.449C43.8494 19.2464 43.8818 19.0363 44.0159 18.8758C44.1084 18.769 44.1957 18.7228 44.269 18.6681V17.4543L44.3148 17.4232C44.5121 17.2677 44.533 17.2626 44.5446 17.0584C44.5313 16.9617 44.5495 17.0096 44.4597 16.9567C44.3672 16.9256 44.2382 16.7987 44.2499 16.5709C44.2499 16.5104 44.2549 16.4422 44.2707 16.354C44.3049 16.1884 44.3165 16.0547 44.3165 15.9413C44.3182 15.6706 44.2449 15.4933 44.2433 15.2419C44.2433 15.1302 44.2583 15.0117 44.3033 14.8738C44.4373 14.4435 44.6489 14.2644 44.8311 13.9131C44.8295 13.9097 45.145 13.2414 45.145 12.3412V12.2799L45.1984 12.2487C45.8253 11.9235 45.4524 10.5062 45.9386 9.37905C46.1833 8.8436 46.3607 8.33594 46.6972 8.00979C46.7021 7.97617 46.7054 7.94254 46.7054 7.91231C46.7087 7.71387 46.608 7.54324 46.603 7.32646C46.5997 7.22472 46.6339 7.11299 46.7138 7.01543C46.8078 6.89274 46.907 6.84983 46.9819 6.79266C47.0312 6.61022 47.2892 5.74948 47.5806 5.21576C47.7546 4.90646 47.7546 4.73252 48.1226 4.39038V3.17144L48.1667 3.13861C48.344 3.00411 48.3358 2.9797 48.3765 2.89742C48.4174 2.80576 48.4965 2.69402 48.7486 2.53095L48.7687 2.51835L48.7928 2.51504C49.0501 2.48386 49.0826 2.25527 49.0859 1.8803C49.0859 1.77864 49.0843 1.67187 49.0843 1.56517C49.0859 1.17941 49.1476 0.701125 49.683 0.698605C50.6123 0.743961 50.5015 2.27039 50.6107 2.42425C51.3507 4.05911 51.554 3.79768 51.5881 4.2088V5.04095C51.5805 5.7479 52.5907 8.38224 52.5989 8.39563L53.4707 11.8579C53.5573 11.9335 53.6289 11.9991 53.7105 12.0571L53.7588 12.0866V13.3071C53.9835 13.524 54.0553 13.6963 54.0553 13.8459C54.0553 13.9661 54.0177 14.046 54.0211 14.0972C54.0227 14.1544 54.0385 14.23 54.2667 14.4006L54.3107 14.4317V16.075L54.2309 16.0911C54.2292 16.1129 54.2292 16.1423 54.2292 16.1751C54.2226 16.7778 54.5174 18.9346 54.5973 19.1759L54.6181 19.1894L54.6249 19.2398C54.6759 19.6885 54.7058 21.1796 54.7058 22.6666ZM47.7708 18.4832C47.7708 18.6816 47.7626 18.8488 47.73 18.9724L47.7201 19.0118C47.8733 18.9967 48.0457 18.9841 48.223 18.9841C48.4786 18.9841 48.7567 19.0068 49.0332 19.069C49.8408 19.2463 50.2863 19.8087 50.8184 19.9726C50.8799 19.976 50.939 19.976 50.994 19.976H51.0541C51.064 19.5919 51.0948 18.1772 51.0948 17.0525C51.0948 16.4297 51.084 15.8876 51.0557 15.6808C50.8799 15.4765 50.8933 15.0891 50.8408 14.6654C50.8008 14.2199 50.7192 13.7567 50.5336 13.5962C50.2081 13.2776 49.7783 13.4482 49.3879 13.049C49.1765 12.8145 49.0042 12.4328 48.8851 12.1093L48.8418 13.371L48.8401 13.4239L48.796 13.4534C48.6037 13.5912 48.5587 13.8064 48.4871 14.0367C48.4297 14.2384 48.3032 14.4687 48.005 14.5209C47.9925 14.8579 47.9642 15.9893 47.7286 16.3441C47.7111 16.4457 47.7044 16.5887 47.7044 16.7517C47.7043 17.2626 47.7708 17.9771 47.7708 18.4832ZM36.3138 23.4996L36.1973 23.5323C35.771 23.6307 35.9675 23.9787 35.6094 24.3604C35.5595 24.4393 35.522 24.9789 35.5279 25.5952C35.5279 26.8434 35.6195 28.5321 35.6228 28.5338L35.6277 28.6472H35.5153C35.4046 28.6337 34.6336 28.9414 34.4979 29.2011L34.4654 29.2515H31.3022L31.2713 29.2011C31.094 28.9103 31.089 28.9187 31.0714 28.9279C31.0341 28.9229 30.9266 28.9497 30.7376 28.9497C30.3963 28.9565 30.3112 29.0692 30.2038 29.2061C30.1114 29.3423 29.9957 29.5524 29.6885 29.5524H29.6785C29.6719 29.5473 29.0574 29.4355 28.7509 29.1027H26.5936L26.5627 29.0514C26.4162 28.795 26.2814 28.8135 26.2714 28.5387C26.3022 28.3991 26.3687 28.3815 26.4604 28.2647C26.5353 28.1856 26.6211 28.1 26.6861 28.0411V26.2213L26.7301 26.1902C26.9891 25.9978 26.9707 26.0146 26.9707 25.9649C26.9707 25.9255 26.9632 25.8549 26.9616 25.7498C26.9583 25.7482 26.9616 25.7431 26.95 25.7153C26.9417 25.6876 26.9275 25.6497 26.9076 25.6035C26.8718 25.5136 26.8218 25.3985 26.7643 25.2816C26.6569 25.0512 26.5012 24.8033 26.4538 24.7773L26.3655 24.7134L26.428 24.6276C26.5612 24.4435 26.6019 24.278 26.6019 24.1317C26.6036 23.8375 26.4339 23.6257 26.4339 23.6257L26.4129 23.6012L26.4096 23.5734C26.3871 23.4306 26.3772 23.2793 26.3772 23.1246C26.3788 22.2377 26.6877 21.1997 26.6861 20.6693V20.613L26.6845 20.5558L26.7302 20.5213C27.0083 20.3633 26.9142 19.447 27.2507 18.7452C27.557 18.1425 28.2323 17.3675 28.2206 17.3869C28.3123 17.2195 28.1949 16.3438 29.3938 15.04C29.4572 14.7307 29.9567 12.2359 30.4405 11.4819C30.4954 11.413 30.6353 11.3239 30.8193 11.181C30.9416 11.086 31.0633 10.9969 31.1232 10.9515C31.1499 10.7918 31.3106 10.3388 32.2315 9.47803C32.1924 9.32676 32.0966 8.93423 32.0949 8.49713C32.0949 8.21633 32.134 7.92049 32.2548 7.65316L32.2673 7.62623L32.2889 7.61198C32.8859 7.18165 33.244 6.19902 34.184 5.31057V3.42192L31.1382 3.39169C30.6828 3.8254 29.4788 3.87162 29.4704 5.47624V5.58302H29.3614C29.2674 5.57971 28.9892 5.66869 28.7643 5.81169C28.5313 5.9546 28.3556 6.1513 28.3623 6.30595V8.57461C28.3498 8.79485 28.1849 9.031 27.7927 9.68843L27.7244 9.80016L27.6305 9.7111C27.4297 9.52874 27.3648 9.35637 27.3681 9.21684C27.3698 9.11014 27.3922 9.03108 27.3898 8.97399C27.3881 8.90005 27.3748 8.82265 27.1566 8.66044L27.1175 8.63524L27.1108 8.58815C27.1108 8.58815 27.03 8.00475 26.9618 7.64167C26.9318 7.4282 26.916 7.22307 26.8802 7.22472L26.8103 7.1785L26.8395 7.09952C26.8395 7.09787 27.0967 6.40769 27.0967 5.7857C27.0967 5.47467 27.0301 5.19056 26.8653 5.02158C26.7711 4.92662 26.7129 4.8837 26.6037 4.80811L26.5563 4.77535V2.11235L26.5788 2.08456C26.5771 2.0829 26.8444 1.71817 26.8361 1.46335L26.8345 1.40792L26.8186 1.28603H26.9402C30.8519 1.28603 31.2117 1.31886 35.0516 1.31886H35.1575V2.86293C35.1332 3.10254 35.4096 3.13869 35.4338 3.5413V8.65351L35.3964 8.68635C35.1375 8.90911 35.055 9.28904 35.0567 9.6437C35.055 10.0429 35.1525 10.3893 35.1525 10.3893L35.1766 10.4633L35.1133 10.5062C34.3049 11.0743 33.8919 13.3414 33.4065 13.9231V15.2385L33.3415 15.268C33.3398 15.2696 32.2208 15.7547 32.0151 16.3406C31.9635 16.4742 31.9435 16.6591 31.9435 16.8432C31.9435 17.2063 32.0201 17.5628 32.0201 17.5628L32.0384 17.6502L31.9567 17.6847C31.0409 18.0309 29.5695 22.185 29.5988 22.4237V23.1795L29.4839 23.1904L29.5438 23.2467L29.5355 23.2593C29.5239 23.2778 29.5046 23.3139 29.484 23.3636C29.4415 23.4585 29.3856 23.6014 29.3206 23.7738C29.1908 24.1201 29.0251 24.5883 28.8537 25.0698C28.5256 25.9752 28.1866 26.9124 27.9618 27.2612C28.1134 27.4814 28.1251 27.4798 28.135 27.4714C28.1626 27.4731 28.2483 27.4545 28.3839 27.4545C28.6296 27.4629 28.732 27.3151 29.7944 26.7829C30.0235 26.704 30.2957 26.862 31.1091 26.4821C31.2374 26.445 31.5662 25.8222 31.9652 25.2389C32.3556 24.6774 32.8661 24.1109 33.5514 24.0579C33.5938 23.7637 33.7695 23.1593 34.0575 22.8752L34.1566 22.7802L34.2233 22.8979C34.274 22.9904 34.3165 23.0508 34.3698 23.1232C35.2499 22.7113 34.8594 22.2758 35.3181 21.7127L35.3482 21.675H36.1317L36.1258 21.7866C36.1258 21.7866 36.1226 21.8976 36.1226 22.0624C36.1192 22.4322 36.1468 23.1056 36.2674 23.3879L36.3138 23.4996ZM12.6804 25.3782C12.6787 25.717 12.8736 26.3937 12.8736 27.0374C12.8736 27.187 12.8653 27.335 12.8378 27.4796C12.7303 28.0528 12.3723 28.8639 12.3615 28.8842C12.3615 28.8858 11.7887 29.7181 11.5638 30.2946C11.2907 30.9881 11.1783 32.2086 11.1783 32.2086L11.1734 32.2726L11.1167 32.3003C11.1151 32.302 9.96603 32.8357 9.3315 33.3106C8.76366 33.7309 8.18912 34.0991 8.05262 34.4867L8.03093 34.5496L7.96931 34.559C7.96931 34.559 6.60798 34.7531 6.20745 34.9112C6.15339 34.9304 6.13093 34.9423 6.13257 34.9464C6.05434 35.0456 5.96846 35.1096 5.86534 35.1128C5.54804 35.0523 5.47316 34.6825 5.25991 34.7086C5.17754 34.707 5.04267 34.7581 4.85025 34.9464C4.71375 35.2372 4.29746 35.2457 3.84109 35.2591C3.15999 35.2591 2.34154 35.1322 2.15917 35.0995C2.06425 35.1473 1.95434 35.1507 1.82861 35.1524C1.52807 35.1524 1.1401 35.0869 0.925289 35.0893C0.873575 35.0869 0.832781 35.0927 0.816947 35.0978L0.759539 35.1986L0.662039 35.1079C0.539735 34.9977 0.380615 34.848 0.329837 34.8186L0.152543 34.7002L0.349883 34.6279C0.349883 34.6253 0.992681 34.3732 1.18916 34.1832L1.18589 34.1815L1.18916 34.1783C1.19416 34.1699 1.20079 34.1521 1.21163 34.132C1.22996 34.0858 1.25406 34.0185 1.28152 33.9353C1.33237 33.7689 1.39563 33.5411 1.46053 33.2813C1.59297 32.7669 1.73119 32.1365 1.8219 31.6632C1.8219 30.0258 1.91854 29.1861 1.91854 28.3271C1.91854 27.9 1.89522 27.4646 1.82362 26.9158C1.7978 26.7139 1.71122 25.2044 1.57963 24.1109C1.57963 22.3431 1.68041 20.5292 1.68041 19.4565C1.68041 19.2531 1.67542 19.0741 1.66621 18.9312L1.66294 18.8279L1.76371 18.8194C1.98352 18.8018 2.07587 18.6261 2.09849 18.5715L2.03515 17.172L1.82206 16.7206L1.85123 14.6754C1.88875 14.3779 2.1169 14.0711 2.11354 14.0753C2.13764 14.0425 2.16097 13.8458 2.15761 13.6482C2.15761 13.3776 2.13429 13.0852 2.12509 13.0011L1.82198 12.4968V5.38128L1.86605 5.34852C2.13008 5.15607 2.12501 5.15607 2.12009 5.11993C2.12173 5.07276 2.10013 4.95764 2.10013 4.75677C2.10013 4.55338 2.11175 4.45495 2.11175 4.42558L2.10512 4.42723C2.07758 4.40203 2.02681 4.35495 1.95107 4.26242C1.89366 4.26746 1.80451 4.2725 1.71465 4.27754C1.70045 4.30534 1.67378 4.33983 1.61715 4.34479C1.54227 4.32802 1.52644 4.31203 1.49648 4.28423H1.48736C1.45483 4.28423 1.43814 4.28683 1.4007 4.27754C1.39571 4.26912 1.33908 4.28258 1.31747 4.17084C1.3291 4.11958 1.34243 4.09691 1.35655 4.08509C1.29485 4.01958 1.23823 3.95572 1.21834 3.92627L0.300821 3.04026C0.180077 2.83852 0.120095 2.79568 0.0975533 2.78222C0.0775853 2.77804 -0.0231127 2.66284 0.00434327 2.59646C0.00434327 2.5393 0.00761927 2.45858 0.00761927 2.3048C0.0108953 2.03826 -0.00486073 1.96605 0.0650273 1.86423C0.125009 1.79368 0.160811 1.79368 0.300743 1.5684L0.331553 1.51462H1.80778C2.00762 1.37343 2.43061 1.33225 2.91523 1.25988C3.43471 1.19437 3.9701 1.15492 4.15082 1.15492L5.61457 1.20531C7.09088 1.20366 7.63454 1.06074 8.4122 1.05901C8.75688 1.05901 9.14579 1.08767 9.67619 1.17421L9.74607 1.18429L9.76269 1.25319C9.87181 1.68698 10.2932 1.87101 10.4996 2.05007C10.537 2.04503 10.5921 2.03999 10.6603 2.03999C10.8443 2.03999 11.1258 2.07274 11.3814 2.24842C12.3056 2.88387 12.8086 4.40699 12.8135 5.20891C12.8135 6.01335 12.9925 6.76235 12.9942 7.36079C12.9942 7.71214 12.9275 8.02396 12.7219 8.22484L11.6936 10.1691C11.308 10.8987 10.3921 12.0124 10.0816 12.3839C10.1025 12.4217 10.2015 12.558 10.3971 12.6647C10.6203 12.7959 10.9467 12.9194 11.3438 12.9606C11.5912 13.0009 11.7119 13.2085 11.7019 13.3943C11.697 13.7634 11.4139 14.1727 11.3831 14.2122C11.3781 14.2138 11.3605 14.2399 11.3605 14.2972C11.3589 14.3694 11.3897 14.4761 11.4322 14.5535C11.4771 14.6358 11.5313 14.6635 11.5346 14.6619C11.5346 14.6619 11.5462 14.6669 11.5804 14.6157L11.6487 14.5039L11.7427 14.5964C12.1691 15.0184 12.2241 15.1369 12.234 15.252C12.2424 15.2899 12.1574 15.2159 12.4914 15.4764L12.5496 15.5193L12.5338 15.5899C12.5338 15.5915 12.304 16.5313 12.304 17.5005C12.304 17.9838 12.3614 18.4713 12.5255 18.847C12.6021 19.0774 13.0675 19.1976 13.1125 19.5506C13.1125 19.6279 13.08 19.6986 13.0251 19.7625C13.0251 19.8641 13.0284 20.1323 13.0284 20.4197C13.0284 20.6047 13.0268 20.7938 13.0251 20.9569C13.0251 20.9947 13.0235 21.0292 13.0235 21.067C13.0235 21.9487 13.1858 22.7901 13.1858 23.5601C13.1858 24.1627 13.0834 24.7251 12.7129 25.2092C12.6978 25.2261 12.6787 25.2833 12.6804 25.3782ZM8.88527 6.08571C8.89353 6.05453 8.86608 5.99405 8.94603 5.95122L9.34734 5.66538C8.89034 5.50908 8.49308 5.78901 8.10753 4.99717L7.98093 4.99552L6.75532 5.17285L6.8302 4.99717C6.84182 4.96693 6.85025 4.93583 6.85188 4.90481C6.821 4.92158 6.78356 4.9393 6.74783 4.95268C6.68208 5.15277 6.69206 5.24686 6.68707 5.3486C6.69043 5.47632 6.61375 5.59987 6.41228 5.71176V11.0568C6.5214 11.0207 6.61547 11.0072 6.69542 11.0072H6.70704C6.85688 11.0072 6.96514 11.0745 7.00593 11.1006C7.5563 10.9333 7.32488 9.56827 8.89525 9.37913C8.89361 9.23794 8.88698 9.01006 8.88698 8.75548C8.90695 8.12586 8.88534 7.35426 9.15756 7.05157C9.08924 6.85644 8.8919 6.30091 8.88527 6.08571ZM9.1117 25.1303C9.11833 24.942 9.21567 24.7756 9.20904 24.657C9.20577 24.5822 9.19329 24.5326 9.08924 24.4586L8.95266 24.3746L9.08253 24.2813C9.15912 24.224 9.18323 24.1644 9.18658 24.0576C9.19664 23.729 8.82185 23.1482 8.81358 22.6009C8.81195 22.3547 8.90188 22.1034 9.14415 21.9125C9.13416 21.2569 9.03854 21.1703 8.94603 21.0711C8.82864 20.9568 8.68044 20.7921 8.69042 20.2011C8.69869 19.8952 8.96678 19.337 8.96179 19.0134C8.95843 18.8932 8.93261 18.8427 8.88355 18.8192L8.79104 18.7671L8.83691 18.6745C8.89026 18.5712 8.90851 18.4728 8.90851 18.3771C8.91015 18.0307 8.64627 17.7315 8.64456 17.7315L8.493 17.5609L8.7178 17.5499C8.75197 17.5483 8.77521 17.5432 8.78605 17.5399C8.77521 17.4726 8.58622 17.2658 8.5696 17.0649C8.56633 17.0043 8.59877 16.9304 8.64292 16.9061C8.67373 16.874 8.68371 16.848 8.68371 16.8051C8.70368 16.585 8.23834 16.1419 8.2491 16.1529C7.7187 15.8595 7.10999 15.2694 7.1025 15.2627L6.41883 14.5499C6.42717 14.9131 6.43966 15.572 6.43966 16.1747C6.43966 16.6135 6.43303 17.022 6.41048 17.2699L6.40713 17.3028L6.3863 17.328C6.28389 17.4523 6.23483 17.7138 6.23654 18.0063C6.23491 18.5896 6.40713 19.2713 6.40713 19.2713L6.41376 19.2957L6.12071 20.7382L6.06744 20.7608C5.92922 20.8197 5.87345 20.8987 5.85762 21.0482L5.85434 21.0827C5.85762 21.2273 5.92423 21.3323 6.06744 21.3928L6.13405 21.4197V26.6943L6.10652 26.7271C5.96167 26.886 5.87338 26.9204 5.8559 27.0506C5.83929 27.1523 5.82751 27.2178 5.81339 27.2658C5.79506 27.2936 5.81176 27.3263 5.76932 27.3591C5.77595 27.6297 5.7843 28.2526 5.7843 29.5866C5.78594 29.5866 5.80676 30.2734 5.82174 30.5641L5.84935 30.5902C5.87345 30.6196 5.87345 30.6456 5.87345 30.6591C5.85263 30.7853 5.71277 31.0088 5.56122 31.3098C5.48969 31.4443 5.41801 31.577 5.36138 31.6763C5.57456 31.6476 5.90091 31.5922 6.1016 31.5148L6.74776 30.9239L6.78348 30.9223C7.25148 30.9138 7.83765 29.9186 8.22983 29.6159C8.62701 29.2874 8.44628 28.1509 8.61866 27.2229L8.62701 27.1817L8.65283 27.1625H8.65446C8.65782 27.1523 8.66609 27.1339 8.67864 27.1112C8.69697 27.0649 8.72271 26.9977 8.74853 26.9204C8.80259 26.7615 8.86421 26.548 8.92583 26.3294C9.0433 25.8956 9.14735 25.4124 9.14563 25.283V25.2813C9.12168 25.2319 9.1117 25.1781 9.1117 25.1303ZM66.2745 29.9189C66.3254 30.0122 66.3802 30.1467 66.3802 30.3258C66.3802 30.4704 66.3478 30.6351 66.2661 30.8419C66.1138 31.1949 66.2111 31.295 65.5485 34.5463L65.5242 34.6623L65.4151 34.6294C65.4027 34.6185 64.4069 34.3278 64.1513 34.0858C62.6783 32.639 62.2911 32.5551 61.67 32.5533C61.5509 32.5533 61.4194 32.5533 61.2729 32.5533L61.2479 32.555L61.1637 32.5633L61.1346 32.4894C61.1212 32.4531 61.118 32.4203 61.118 32.3842C61.1262 31.8799 61.9464 29.9911 62.0946 29.1808C62.1612 28.8412 62.2095 27.4215 62.2095 26.4608C62.2095 26.0237 62.197 25.6689 62.1787 25.5538V25.5412C62.1787 25.3966 62.008 24.2005 61.7349 23.0505C61.4843 21.8957 61.043 20.7491 60.7532 20.7264L60.6607 20.702L60.6724 20.6062C60.7564 19.9396 60.9372 19.0293 60.9355 18.6763C60.9389 18.6107 60.9322 18.5779 60.9289 18.5745C60.5209 17.7928 59.6991 16.2369 59.2254 16.0234C59.2421 16.1664 59.257 16.2832 59.257 16.4051C59.257 16.6741 59.1786 16.9305 58.928 17.4658C58.8174 17.6895 58.6557 17.9189 58.6607 18.0871L58.6623 18.1115L58.6673 18.141L58.6572 18.1637V18.2031C58.6556 18.9378 59.3683 24.8032 59.3701 25.3521V25.3638L59.3768 25.4294L59.3184 25.4639L59.3002 25.485C59.2843 25.5034 59.2627 25.5294 59.2453 25.5623C59.2045 25.6245 59.1702 25.7068 59.1702 25.7858L59.1736 25.8102C59.1568 25.8734 59.38 26.0305 59.4142 26.3053C59.4417 26.6499 59.4701 27.0543 59.4701 27.4677C59.4701 28.0671 59.4159 28.68 59.2212 29.1549C59.257 29.771 59.5117 31.3101 59.5117 32.0379C59.5117 32.1363 59.5084 32.2229 59.4942 32.2952L59.4908 32.3188L59.4759 32.3399C59.3801 32.4827 59.3361 32.4878 59.2286 32.5584C59.2421 32.6736 59.2728 32.8441 59.2728 33.1156C59.2728 33.488 59.2178 34.0487 59.0105 34.9463L58.928 35.3002L58.8057 34.9581C58.1969 33.2846 57.2453 32.2743 56.4435 31.6236C55.6409 30.9435 54.9922 30.7435 54.9365 30.3291C54.9498 30.3132 55.9048 26.8601 56.3294 26.4524C56.3652 26.3937 56.3909 26.2298 56.3893 26.0457C56.3893 25.7825 56.3519 25.4725 56.3227 25.2732C56.2411 25.1992 56.1828 25.147 56.0855 25.0832L56.0364 25.0495L56.0397 24.9874C56.043 24.9285 56.043 24.0333 56.043 22.8834C56.043 20.6988 56.0397 17.5644 56.0397 17.2373C55.9372 17.0473 55.9904 16.7599 55.9372 16.6776L55.9405 16.6759L55.8981 16.6482L55.7649 15.4521C55.6492 15.2815 55.5775 14.9595 55.5334 14.9545L55.4851 14.9234L55.4835 14.8704C55.4835 14.8671 55.4768 14.5721 55.4768 14.2778C55.4768 14.1475 55.4768 14.0164 55.4835 13.9114C55.4244 13.808 55.4227 13.6862 55.3953 13.5374C55.3744 13.3693 55.3436 13.1868 55.3169 13.1229L55.3186 13.1163L55.2687 13.0818L55.2736 13.0195C55.2736 13.0195 55.2736 12.9867 55.2736 12.9254C55.2769 12.7438 55.2536 12.3362 55.1428 12.1076C55.0338 11.963 55.0637 11.7612 55.0354 11.4931C55.0262 11.2569 55.0029 10.9921 54.9805 10.9333L54.9463 10.9106L54.9314 9.46984C54.7022 9.23951 54.6433 9.10849 54.6433 8.98825C54.6433 8.94116 54.6515 8.911 54.6499 8.90005C54.6515 8.8984 54.6566 8.8521 54.4208 8.67973L54.3834 8.65201L54.3785 8.60745C54.3359 8.26869 54.3136 7.78962 54.3136 7.30969C54.3136 6.82715 54.3359 6.34722 54.3785 6.00846L54.3801 5.9724L54.4058 5.94634C54.8631 5.49498 56.1354 4.85102 56.9821 3.66162C56.7672 3.58264 56.1977 3.43303 56.082 3.41035C56.0721 3.41869 56.0546 3.44145 56.0345 3.46751C55.9954 3.51712 55.9404 3.59783 55.8314 3.63059C55.734 3.65831 55.6575 3.70461 55.535 3.70626C55.4492 3.70626 55.3627 3.68099 55.2636 3.62217L55.2126 3.59272L55.2093 3.53476C55.1885 3.09349 54.6956 2.53449 54.181 2.10078C53.7064 1.69226 53.2668 1.41146 53.1202 1.28618L52.1085 1.06429L52.1277 0.850815L56.1386 0.739079C56.5 0.570097 56.5749 0.544034 56.8372 0.549073C57.1085 0.533954 57.1651 0.654116 57.3068 0.850815H58.7679L58.7845 0.880265C58.8005 0.886958 58.8221 0.897116 58.8513 0.905541C58.9129 0.931605 59.0011 0.962709 59.1067 0.997119C59.3183 1.07106 59.5981 1.1602 59.8761 1.25012C60.4215 1.42414 60.9619 1.58722 60.9585 1.5906C61.0268 1.5906 61.1192 1.5873 61.2234 1.5873C61.3226 1.5873 61.4381 1.5906 61.5588 1.60832C62.0385 1.67218 62.4715 1.98825 62.823 2.27992C63.1517 2.57245 63.464 2.83726 63.4823 2.81537H63.5505L64.9677 5.83633C65.0118 5.96917 65.0177 6.19445 65.0177 6.46596C65.0177 6.98456 64.9786 7.62001 64.9786 7.62001L64.971 7.67293L64.9319 7.70246C64.9286 7.70246 64.8637 7.83356 64.8279 7.97813C64.7838 8.1068 64.7613 8.22862 64.6988 8.32366C64.7037 8.48248 64.7054 8.65729 64.7054 8.82289C64.7054 9.18266 64.6988 9.50125 64.6938 9.52732C64.1751 11.5859 63.2151 13.24 61.4432 13.3074C61.4449 13.5586 61.4515 13.7116 61.4515 13.815C61.4548 14.0319 61.3941 14.0772 61.2759 14.1908C61.3017 14.1924 61.3241 14.1924 61.3474 14.1924C61.5555 14.1957 61.7313 14.1151 61.9635 14.1109C62.2924 14.1109 62.6521 14.2976 63.2492 15.0254C63.648 15.2095 63.5488 15.7037 63.6055 15.8912C63.6222 15.9618 63.6346 15.9668 63.6547 15.9735C63.8676 16.0534 63.9844 16.0997 64.0643 16.1441C64.1441 16.1819 64.2041 16.282 64.1949 16.3492C64.1933 16.3886 64.1884 16.4147 64.1916 16.4458C64.1916 16.5056 64.2008 16.5954 64.2807 16.7653C64.3641 16.9805 64.3916 17.6302 64.4957 17.7025C64.6063 17.9118 64.6096 18.554 64.6404 19.2382C64.6553 19.8939 64.7153 20.6083 64.7546 20.615V20.6167C64.8262 20.6806 64.8095 20.7403 64.8371 20.8184C64.8537 20.9092 64.8686 21.016 64.8928 21.1211C64.9319 21.3446 65.0177 21.4791 65.0684 21.469C65.0859 21.469 65.1233 21.458 65.1826 21.4219L65.2783 21.3606L65.3308 21.4598C65.4706 21.7355 65.817 24.5178 65.8579 24.7397L65.8645 24.7841L65.8429 24.8219C65.7746 24.8925 65.6722 25.7171 65.6722 25.8499C65.6913 25.8811 65.7879 25.9172 65.9554 25.9585L65.9979 25.9685L66.0203 26.0063C66.126 26.1853 66.3784 26.7418 66.3933 27.0325L66.4058 27.0722L66.3749 27.1166C66.2841 27.251 66.2674 27.3218 66.2658 27.4024C66.2624 27.5537 66.3716 27.7933 66.3716 28.3371C66.3716 28.6768 66.3309 29.1324 66.1976 29.7938L66.2108 29.8123C66.2253 29.8382 66.2486 29.8744 66.2745 29.9189ZM61.2155 9.87741C61.2155 9.57653 61.2762 9.27054 61.2762 9.26463L61.3037 9.13439L61.3669 9.16384C61.3786 9.13943 61.3928 9.10502 61.4044 9.07045C61.4385 8.99651 61.4452 8.91754 61.5068 8.84856L61.5101 8.2635C61.5101 8.2635 61.5426 8.14586 61.5426 7.93742C61.5426 7.67427 61.4892 7.27835 61.2513 6.84133C61.248 6.83629 60.8283 6.23863 60.3286 5.63932C59.8374 5.03575 59.213 4.44487 58.9766 4.46589C58.9133 4.46424 58.8567 4.46251 58.8026 4.46251H58.7442V12.727C58.8242 12.7337 58.9475 12.7404 59.0731 12.7404C59.1788 12.7421 59.293 12.7354 59.3804 12.7186C59.8307 12.637 60.3079 12.3068 60.422 12.1538C60.6775 11.8352 61.0397 10.5559 61.2272 10.0877C61.2172 10.0203 61.2155 9.94977 61.2155 9.87741ZM76.8056 13.2144C76.8023 13.823 76.7823 14.345 76.6967 14.598L76.685 14.6308L76.6575 14.6518C76.5824 14.6788 76.4459 15.1613 76.2779 15.3764C76.272 15.4403 76.2703 15.5109 76.2703 15.5815C76.2703 15.9152 76.317 16.3111 76.317 16.6953C76.317 17.0306 76.2828 17.3577 76.1396 17.6299C75.899 18.1856 75.5967 18.4891 75.4911 18.5899L75.3119 19.9676C75.0514 20.6459 75.2079 20.7797 75.108 20.9797C75.1264 21.2427 75.2661 23.3416 75.2661 24.9169C75.2661 25.6086 75.2403 26.1937 75.1555 26.5249C74.9664 26.9669 74.9422 27.4503 74.9422 27.9622C74.9422 28.1001 74.9439 28.2387 74.9439 28.3801C74.9422 28.9104 74.9231 29.4635 74.7125 29.9896L74.4219 31.5648C74.1802 32.2415 74.1745 32.3878 73.8472 32.7887C73.7008 33.0922 73.6375 33.1829 73.5509 33.2452C73.4727 33.3024 73.4602 33.2797 73.3218 33.4359C73.1995 33.7596 72.6332 33.8495 71.9822 34.0597C71.2911 34.2504 70.5018 34.4505 70.1162 34.6624C70.0854 34.6708 70.0604 34.6725 70.0363 34.6725C69.7432 34.6547 69.3644 34.3143 69.2261 34.3329L69.2079 34.3362C69.0912 34.5497 68.7833 34.5951 68.421 34.6826C68.0347 34.7599 67.5892 34.807 67.3078 34.807C67.1796 34.8053 67.1029 34.8053 67.023 34.7682L66.8974 34.7003L66.9989 34.5985C67.4036 34.1866 67.814 33.4982 67.8856 32.6786C67.8873 32.6357 67.889 32.5879 67.889 32.5374C67.8914 31.8954 67.5653 31.0076 67.5636 31.0076L67.5278 30.9093L67.6235 30.8716C68.0206 30.7269 68.8549 30.3326 68.7967 30.183C68.7967 30.0998 68.7801 30.0637 68.7758 30.0586L68.7642 30.0552L68.7368 30.0518C68.6841 30.0518 68.5752 30.0552 68.5168 29.9284L68.1946 29.124L67.6302 27.8101L68.1422 22.6895C67.5043 21.9867 66.9123 19.9711 66.8974 19.7777V18.9463C66.9207 18.7059 66.6458 18.6697 66.6209 18.2737C66.6209 18.2737 66.5542 17.2677 66.5542 16.5002C66.5576 16.1682 66.561 15.8993 66.6034 15.7294C66.5335 15.6638 66.4777 15.6167 66.392 15.5588L66.3396 15.5243L66.4536 13.5741C66.392 13.4615 66.3887 13.317 66.3511 13.1329C66.3203 12.9303 66.2861 12.7076 66.2536 12.6235L66.2578 12.6118L66.2079 12.5773V6.87408L66.2578 6.84133C66.3461 6.77912 66.4045 6.72368 66.486 6.65392V4.45329L66.5334 4.42054C66.6225 4.36085 66.6815 4.30376 66.7625 4.23478V2.66875C66.4777 2.39307 64.3904 0.390879 64.2928 0.270639L64.1547 0.0950425H65.7524L65.7849 0.149611C65.8398 0.249614 65.8889 0.313554 65.9522 0.399226H66.8881L66.9056 0.485764C66.8864 0.764041 68.2203 0.922943 68.8548 1.60627H69.7664L69.7989 1.65919C69.8931 1.82148 69.9796 1.90723 70.1028 2.06015H71.0128L71.0453 2.11401C71.102 2.21401 71.1495 2.27952 71.2127 2.36197H72.3992L72.43 2.41488C72.4867 2.51662 72.5324 2.58221 72.5974 2.6645H73.8848L73.9172 2.7167C74.3302 3.39838 75.1387 3.84217 75.3067 4.16242C76.2486 6.15792 76.057 6.33194 76.3792 6.53951L76.4259 6.57226L76.3493 9.45952C76.4176 9.56795 76.4458 9.72772 76.5074 9.91938C76.5657 10.1253 76.6341 10.3531 76.6666 10.3976L76.6982 10.4203L76.7024 10.4749C76.7024 10.4751 76.8056 11.9991 76.8056 13.2144ZM72.6092 17.962C72.6075 17.1853 73.0105 16.8516 73.1521 16.76C73.2013 16.4708 73.4009 15.1109 73.8065 14.746V11.978C73.6033 11.799 73.5152 11.4207 73.4177 11.04C73.3219 10.639 73.2354 10.2053 73.2046 10.1725C72.8841 9.69181 72.2154 9.52362 72.1504 8.77635C71.4912 8.70414 71.4019 8.12743 71.1447 8.18042C70.6159 8.17877 70.3454 8.13924 69.9457 8.13924C69.8199 8.13924 69.6817 8.14263 69.5211 8.15271L69.4102 9.19999L69.4885 9.56141C69.4885 9.56141 69.6051 12.6025 69.6051 13.7424C69.6035 13.8424 69.6035 13.9215 69.6035 13.987L69.6102 13.9937C69.6393 14.0475 69.6718 14.1164 69.7001 14.1828C69.7616 14.3207 69.8166 14.4535 69.8199 14.4535L69.8248 14.4745V14.4947C69.8024 14.8326 70.1638 16.1817 70.3229 16.2145L70.3795 16.2456L70.3396 29.5971C70.7492 29.0911 71.67 27.7982 71.6668 26.5021C71.6668 26.4558 71.6668 26.4087 71.6668 26.3281C71.9773 25.2571 72.3196 24.8992 72.4236 24.2898L72.422 24.2645C72.4269 23.93 72.417 18.7798 72.6142 18.0999C72.6125 18.0527 72.6092 18.0065 72.6092 17.962ZM25.577 29.5062L25.4055 29.4373C25.2123 29.36 25.1116 29.3491 24.9991 29.3473C24.9434 29.3473 24.8818 29.3532 24.8086 29.3532H24.7519L24.7319 29.3254L24.6995 29.3205C24.6394 29.3205 24.508 29.344 24.2782 29.4607L24.2215 29.4903L24.1707 29.454C24.0925 29.391 23.6162 29.3339 23.0859 29.3389C22.2623 29.3355 21.2241 29.4355 20.9459 29.5507C20.5521 29.9365 20.4463 30.0323 20.2998 30.05H20.2948C20.2333 30.05 20.1892 30.0105 20.1808 30.0003V29.9987L20.1841 29.997L20.1808 29.9987C20.0035 29.9449 19.9926 29.8036 19.7986 29.6819L19.7046 29.6146L19.7745 29.5265C20.573 28.5177 20.1276 28.8228 21.0435 28.2034C21.2583 27.5435 21.2842 25.2697 21.2784 24.5822V24.3191L21.325 24.2898C21.5772 24.0972 21.5632 24.0972 21.5673 24.0299C21.5689 23.982 21.5582 23.8972 21.5548 23.7736C21.5789 23.5718 21.2875 23.4038 21.2784 22.8665C21.2875 22.4909 21.4033 21.9469 21.6454 21.6747L21.5548 9.73866L21.5955 9.70591C21.6847 9.63362 21.7529 9.58984 21.797 9.56134C21.8179 9.54874 21.8312 9.54031 21.8378 9.537L21.8344 9.50417C21.8427 9.45787 21.7612 9.44188 21.6046 9.35117L21.5597 9.31841L21.2033 3.24365C21.1367 2.97805 20.8987 2.89065 20.6189 2.80741C20.3916 2.73851 20.1003 2.6771 20.0301 2.41488C19.7713 2.41323 19.6671 2.39638 19.5772 2.29811C19.5014 2.20897 19.4914 2.13251 19.2292 1.94172L19.1384 1.87612L19.2067 1.78872C19.3091 1.65423 19.444 1.48194 19.4765 1.42564L19.5157 1.35004L19.5972 1.37359C19.8752 1.45509 21.1559 1.50973 22.3633 1.50808C23.4714 1.50973 24.5697 1.45847 24.7829 1.37524L24.8645 1.34248L24.9111 1.42398C25.0136 1.598 25.1036 1.68029 25.2468 1.86108L25.271 1.89061V2.46543L25.1926 2.48559C24.5174 2.67056 23.7855 3.29853 23.8004 3.82044C23.8096 4.23486 23.8538 4.20541 23.8829 4.22982C23.9645 4.25754 24.0978 4.38447 24.0753 4.72748C24.082 4.99725 23.9354 5.14529 23.8279 5.22505C23.7156 5.31758 23.6665 5.34025 23.6606 5.48309C23.6606 6.3817 23.7871 8.80336 23.7871 10.8559C23.7871 11.8495 23.7563 12.7581 23.6697 13.3759C23.7629 13.4742 23.7596 13.6138 23.7937 13.7601C23.8213 13.9357 23.8487 14.1316 23.8829 14.2005L23.8912 14.2181L23.9337 14.2433L24.0852 15.1302L24.0294 15.1696C23.9187 15.247 23.857 15.2848 23.772 15.3798C23.6146 15.5504 23.5673 15.8051 23.5673 16.0615C23.5673 16.3279 23.6163 16.5759 23.618 16.7331C23.6146 16.8121 23.5889 16.8709 23.5889 17.0567C23.5889 17.208 23.608 17.4384 23.6814 17.7796C23.7138 17.9604 23.6798 18.3353 23.7205 18.5337C23.7305 18.5993 23.7429 18.616 23.748 18.6143L23.7921 18.6387L23.7987 18.6901C23.8262 18.8723 23.8345 19.0598 23.8345 19.2305C23.8345 19.5751 23.8003 19.8525 23.7987 19.8558L23.7921 19.9038L23.7514 19.9316C23.6422 20.0055 23.5856 20.0484 23.4924 20.1434C23.3067 20.3376 23.2568 20.4788 23.2551 20.6427C23.2483 20.9748 23.5215 21.4361 23.5232 22.2506V22.3625C23.5465 22.5206 23.8163 23.3123 23.9029 23.414L23.9462 23.4468L23.7971 25.5692L23.7514 25.5986C23.634 25.6793 23.5741 25.7104 23.5008 25.8054C23.4116 25.9155 23.3867 26.0147 23.3834 26.1323C23.3834 26.3055 23.4599 26.5173 23.5199 26.7712C23.7481 27.7227 23.6698 27.1923 25.4 28.4523L25.4358 28.4784L25.577 29.5062ZM35.3879 35.5952H31.5095L31.4795 35.5398C31.4229 35.443 31.3738 35.3783 31.3105 35.2919H30.403L30.3721 35.2406C30.2089 34.98 30.1456 34.9767 30.089 34.9733C30.0532 34.9716 29.9992 34.9859 29.9258 34.9893C29.7875 34.9893 29.6286 34.9204 29.4429 34.6875H26.7842C26.3497 34.6623 26.2389 34.4142 26.1623 34.2849C25.6111 34.2403 22.1549 34.2336 20.3272 34.2336H19.1807H19.1216L19.089 34.1831C18.9916 33.9764 18.3013 33.7687 18.2805 33.7805H17.2731C17.0716 33.9134 15.6611 34.8404 15.5437 35.2212L15.5095 35.3046L15.4246 35.2886C15.423 35.2886 14.5345 35.1407 13.7894 35.1407C13.4171 35.139 13.0765 35.1834 12.9367 35.2751L12.8409 35.3348L12.7876 35.2373C12.7234 35.1247 12.6719 35.0617 12.5427 34.9717L12.4486 34.9028L12.5185 34.8153C12.7158 34.5591 12.6975 34.707 12.7741 34.3346L12.7842 34.2817L13.596 33.8463C13.9131 33.5294 13.869 33.6673 14.5734 33.02V31.7239L14.6209 31.6928C14.6924 31.6499 14.8565 31.5533 14.8515 31.4054C14.8531 31.2886 14.7708 31.2264 14.6192 31.1146L14.5733 31.0818V28.7786L14.6208 28.7458C14.7098 28.6853 14.7707 28.6298 14.8514 28.5593V27.5716L14.8955 27.5389C15.1544 27.348 15.1336 27.3648 15.1336 27.3136C15.1336 27.2758 15.127 27.2035 15.127 27.1001C15.1286 26.7361 14.863 26.5284 14.6191 26.3545L14.5733 26.3217L14.5641 22.4778L14.6307 22.45C14.8173 22.3601 14.7523 22.3937 14.8472 22.2382C14.7981 21.8752 14.7814 21.5331 14.7814 21.2362C14.7814 20.6235 14.8513 20.2049 14.853 20.2015L14.8597 20.1553L14.8971 20.1292C14.9854 20.0695 15.047 20.014 15.1269 19.9451V16.9124L15.1753 16.8813C15.2377 16.8485 15.4924 16.4905 15.4816 16.2215V16.1736C15.465 15.9433 15.2535 15.6693 15.1753 15.623L15.1269 15.5919V11.3504C15.0487 11.2781 14.9904 11.226 14.8971 11.1638L14.8513 11.1336V8.82793L14.8954 8.79517C15.1102 8.64217 15.2035 8.49768 15.4083 8.30515C15.4225 8.1446 15.4666 7.55119 15.4666 7.01905C15.4666 6.72825 15.4508 6.45249 15.415 6.29375C15.33 6.21808 15.2718 6.16682 15.1753 6.10122L15.0794 6.03398L15.151 5.94492C15.2718 5.79869 15.6214 4.87229 15.6132 4.6059V4.5844C15.5482 3.80603 15.1427 3.04026 15.1335 3.02687C15.1219 2.92348 14.7998 2.85458 14.5816 2.86458C14.5375 2.86458 14.4999 2.86624 14.4708 2.86624L14.4483 2.9108L14.3509 2.85608C14.0271 2.60985 14.4584 2.44425 12.9563 1.33721L12.8664 1.26823L12.9363 1.18083C13.1335 0.927826 13.1136 1.0724 13.1902 0.698369L13.2069 0.612618H13.7015L13.7339 0.6664C13.7907 0.765616 13.8363 0.83113 13.9013 0.913573H16.1245L16.1554 0.965701C16.4726 1.48178 16.669 1.54572 16.7948 1.54572C16.8872 1.54737 16.9688 1.50123 17.092 1.49784C17.1345 1.49784 17.1837 1.50958 17.2552 1.5617C17.2586 1.5617 18.122 2.64434 18.4818 2.90072L18.5259 2.93183V5.76365L18.48 5.79641C18.2801 5.95106 18.2577 5.95445 18.2494 6.16122V6.178L18.246 6.18556C18.246 6.20406 18.2703 6.39903 18.7573 6.75463L18.8007 6.78573V8.10798L18.7541 8.14247C18.6641 8.20294 18.6041 8.25247 18.5259 8.32484V14.2761C18.7748 14.498 18.918 14.509 19.0663 14.8065C19.1979 15.0839 19.2237 15.8118 19.2286 16.7172C19.2286 18.5126 19.0787 20.9057 19.0787 20.9057L19.0745 20.9594L19.0321 20.9897C18.9389 21.0519 18.8806 21.1025 18.8006 21.1747V23.1937C18.8839 23.2643 18.9555 23.3266 19.0337 23.3812L19.0695 23.4056L19.0761 23.4501C19.097 23.562 19.1004 23.7653 19.1019 24.004C19.1019 24.4765 19.0786 25.0598 19.0786 25.0615L19.0744 25.1473L18.9895 25.1615C18.6499 25.2162 18.6772 25.4415 18.5358 25.8719C18.7456 26.1736 18.8055 26.124 18.8006 26.4021V26.4922C18.8222 26.8309 18.744 26.8773 18.5259 27.0706V28.3616L18.48 28.3961C18.386 28.4601 18.326 28.5096 18.2494 28.5785V30.479L18.2036 30.5118C18.0263 30.6429 18.0329 30.6975 17.9663 30.9077C17.9514 30.9556 17.9464 30.9867 17.9464 31.001C17.8688 31.0178 18.2344 31.0212 18.2494 31.8264C18.7573 31.8373 19.1345 31.9003 19.605 31.9003C19.8439 31.9003 20.1104 31.8836 20.4325 31.8356C20.6623 31.4776 20.7764 31.438 21.2285 31.1489C21.2692 31.1397 21.3136 31.1329 21.3568 31.1329C21.8289 31.1413 22.6782 31.5666 23.6157 31.5649C24.0629 31.5649 24.5234 31.47 24.9646 31.1901C25.0246 31.016 25.1986 31.0077 25.4267 30.9471C25.6824 30.8975 26.0354 30.8597 26.4651 30.8319C27.3178 30.7765 28.4592 30.758 29.6183 30.758C32.0863 30.758 34.6366 30.8454 34.6391 30.8454L34.7407 30.8471V34.4245L34.7441 34.4229C34.7532 34.4396 34.7649 34.4674 34.7782 34.4985C34.8073 34.5658 34.8522 34.6548 34.903 34.76C35.0055 34.965 35.142 35.2213 35.2761 35.4265L35.3879 35.5952ZM77.9997 1.93668C77.9997 2.2863 77.8307 2.75789 76.6832 2.75789C75.5326 2.75789 75.3518 2.2863 75.3518 1.93668V0.821208C75.3518 0.479937 75.5326 0 76.6832 0C77.8307 0 77.9997 0.479937 77.9997 0.821208V1.93668ZM77.7681 0.800262C77.7681 0.535529 77.5883 0.220243 76.6832 0.220243C75.7739 0.220243 75.5867 0.535451 75.5867 0.800262V1.9577C75.5867 2.22243 75.7738 2.54441 76.6832 2.54441C77.5884 2.54441 77.7681 2.22921 77.7681 1.96274V0.800262ZM76.3352 1.61635V2.18456C76.3352 2.21566 76.3236 2.24173 76.2894 2.24173H76.1511C76.1121 2.24173 76.1004 2.21566 76.1004 2.18456V0.624509C76.1004 0.586712 76.1121 0.568208 76.1511 0.568208H76.7433C77.2203 0.568208 77.3377 0.800184 77.3377 1.01704V1.16917C77.3377 1.33059 77.2612 1.50966 77.0189 1.5836L77.277 2.18456C77.2852 2.21566 77.2612 2.24173 77.2254 2.24173H77.0805C77.0497 2.24173 77.0382 2.21566 77.0265 2.18456L76.7875 1.61635H76.7435H76.3352ZM76.3352 0.757348V1.42721H76.7173C76.9871 1.42721 77.1013 1.29445 77.1013 1.15492V1.02964C77.1013 0.890187 76.9937 0.757348 76.7173 0.757348H76.3352Z" fill="#AAB2C8"/>
</g>
<defs>
<clipPath id="clip0">
<rect width="78" height="41" fill="white"/>
</clipPath>
</defs>
</svg>
